# xmcd
#
# Track frame offsets:
#	150
#	32922
#	71852
#	93385
#	117152
#	156397
#	205902
#
# Disc length: 3551 seconds
#
# Revision: 3
# Processed by: cddbd v1.5.2PL0 Copyright (c) Steve Scherf et al.
# Submitted via: audiograbber 1.83.01
#
DISCID=620ddd07
DTITLE=Mayall, John - LIve At The Marquee 1969
DYEAR=1969
DGENRE=Blues
TTITLE0=Can't Sleep This Night
TTITLE1=So Hard To Share
TTITLE2=Don't Waste My Time
TTITLE3=I'm Gonna Fight For You Jb
TTITLE4=The Laws Must Change
TTITLE5=California (1)
TTITLE6=California (2)
EXTD=
EXTT0=
EXTT1=
EXTT2=
EXTT3=
EXTT4=
EXTT5=
EXTT6=
PLAYORDER=
